<svg xmlns="http://www.w3.org/2000/svg" viewBox="0 0 128 128" role="img" aria-label="Blockstead">
  <title>Blockstead</title>
  <rect x="4" y="4" width="120" height="120" rx="22" fill="#173b2a"/>
  <rect x="8" y="8" width="112" height="112" rx="18" fill="#2f684d"/>
  <path d="M8 32h112M8 56h112M8 80h112M8 104h112M32 8v112M56 8v112M80 8v112M104 8v112"
    fill="none" stroke="#ffffff" stroke-opacity=".055" stroke-width="2"/>
  <path d="M20 104h88v8H20z" fill="#173b2a"/>
  <path d="M28 96h72v8H28z" fill="#24543d"/>
  <path d="M82 22h14v8H82zM84 30h10v26H84z" fill="#6a3f2a"/>
  <path d="M28 56h8v-8h8v-8h8v-8h24v8h8v8h8v8h8v8h8v8H28z" fill="#6a3f2a"/>
  <path d="M36 56h8v-8h8v-8h32v8h8v8h8v8H36z" fill="#b86f45"/>
  <path d="M36 64h64v32H36z" fill="#f2e8d5"/>
  <path d="M44 64h48v8H44z" fill="#fff8e9" opacity=".65"/>
  <path d="M56 72h16v24H56z" fill="#6a3f2a"/>
  <path d="M64 80h8v16h-8z" fill="#563220"/>
  <circle cx="68" cy="85" r="1.5" fill="#e8b85b"/>
  <path d="M44 72h8v8h-8zM76 72h8v8h-8z" fill="#9ed1ad"/>
  <path d="M48 72v8M44 76h8M80 72v8M76 76h8" stroke="#2f684d" stroke-width="1.5"/>
  <path d="M20 88h8v16h-8zM100 80h8v24h-8z" fill="#173b2a"/>
  <path d="M16 80h16v16H16zM96 72h16v24H96z" fill="#3f7f58"/>
  <path d="M20 84h8v8h-8zM100 76h8v12h-8z" fill="#69a977"/>
  <path d="M16 104h96v8H16z" fill="#d4a451"/>
  <path d="M48 104h32v8H48z" fill="#e9c471"/>
</svg>
